<svg width="25" height="24" viewBox="0 0 25 24" fill="none" xmlns="http://www.w3.org/2000/svg">
<g clip-path="url(#clip0_2000_208)">
<path d="M20.92 10.1819L13.2101 2.30026C13.1171 2.20651 13.0065 2.1321 12.8846 2.08132C12.7628 2.03054 12.6321 2.00439 12.5001 2.00439C12.368 2.00439 12.2373 2.03054 12.1155 2.08132C11.9936 2.1321 11.883 2.20651 11.7901 2.30026L4.08011 10.1919C3.89355 10.38 3.74621 10.6033 3.64664 10.8489C3.54708 11.0944 3.49727 11.3573 3.50012 11.6222V20.004C3.49934 20.516 3.69489 21.0088 4.04649 21.381C4.39809 21.7531 4.87897 21.9762 5.3901 22.0044H19.61C20.1211 21.9762 20.602 21.7531 20.9536 21.381C21.3052 21.0088 21.5008 20.516 21.5 20.004V11.6222C21.5008 11.085 21.2928 10.5686 20.92 10.1819ZM10.5001 20.004V14.0027H14.5V20.004H10.5001ZM19.5 20.004H16.5V13.0025C16.5 12.7372 16.3947 12.4828 16.2071 12.2952C16.0196 12.1077 15.7653 12.0023 15.5 12.0023H9.50008C9.23486 12.0023 8.98051 12.1077 8.79297 12.2952C8.60544 12.4828 8.50008 12.7372 8.50008 13.0025V20.004H5.5001V11.5822L12.5001 4.4307L19.5 11.6222V20.004Z" fill="#8C94A1"/>
</g>
<defs>
<clipPath id="clip0_2000_208">
<rect width="24" height="24" fill="white" transform="translate(0.5)"/>
</clipPath>
</defs>
</svg>
